HIERARCHY
ROOT Hips
{
  OFFSET 0.0000 0.0000 0.0000
  CHANNELS 6 Xposition Yposition Zposition Zrotation Xrotation Yrotation
  JOINT Spine
  {
    OFFSET 0.0000 10.0000 0.0000
    CHANNELS 3 Zrotation Xrotation Yrotation
    JOINT Spine1
    {
      OFFSET 0.0000 10.0000 0.0000
      CHANNELS 3 Zrotation Xrotation Yrotation
      JOINT Spine2
      {
        OFFSET 0.0000 10.0000 0.0000
        CHANNELS 3 Zrotation Xrotation Yrotation
        JOINT Neck
        {
          OFFSET 0.0000 10.0000 0.0000
          CHANNELS 3 Zrotation Xrotation Yrotation
          JOINT Head
          {
            OFFSET 0.0000 10.0000 0.0000
            CHANNELS 3 Zrotation Xrotation Yrotation
            End Site
            {
              OFFSET 0.0000 10.0000 0.0000
            }
          }
        }
        JOINT LeftShoulder
        {
          OFFSET 5.0000 5.0000 0.0000
          CHANNELS 3 Zrotation Xrotation Yrotation
          JOINT LeftArm
          {
            OFFSET 10.0000 0.0000 0.0000
            CHANNELS 3 Zrotation Xrotation Yrotation
            JOINT LeftForeArm
            {
              OFFSET 20.0000 0.0000 0.0000
              CHANNELS 3 Zrotation Xrotation Yrotation
              JOINT LeftHand
              {
                OFFSET 20.0000 0.0000 0.0000
                CHANNELS 3 Zrotation Xrotation Yrotation
                End Site
                {
                  OFFSET 10.0000 0.0000 0.0000
                }
              }
            }
          }
        }
        JOINT RightShoulder
        {
          OFFSET -5.0000 5.0000 0.0000
          CHANNELS 3 Zrotation Xrotation Yrotation
          JOINT RightArm
          {
            OFFSET -10.0000 0.0000 0.0000
            CHANNELS 3 Zrotation Xrotation Yrotation
            JOINT RightForeArm
            {
              OFFSET -20.0000 0.0000 0.0000
              CHANNELS 3 Zrotation Xrotation Yrotation
              JOINT RightHand
              {
                OFFSET -20.0000 0.0000 0.0000
                CHANNELS 3 Zrotation Xrotation Yrotation
                End Site
                {
                  OFFSET -10.0000 0.0000 0.0000
                }
              }
            }
          }
        }
      }
    }
  }
  JOINT LeftUpLeg
  {
    OFFSET 10.0000 0.0000 0.0000
    CHANNELS 3 Zrotation Xrotation Yrotation
    JOINT LeftLeg
    {
      OFFSET 0.0000 -40.0000 0.0000
      CHANNELS 3 Zrotation Xrotation Yrotation
      JOINT LeftFoot
      {
        OFFSET 0.0000 -40.0000 0.0000
        CHANNELS 3 Zrotation Xrotation Yrotation
        JOINT LeftToeBase
        {
          OFFSET 0.0000 -5.0000 10.0000
          CHANNELS 3 Zrotation Xrotation Yrotation
          End Site
          {
            OFFSET 0.0000 0.0000 5.0000
          }
        }
      }
    }
  }
  JOINT RightUpLeg
  {
    OFFSET -10.0000 0.0000 0.0000
    CHANNELS 3 Zrotation Xrotation Yrotation
    JOINT RightLeg
    {
      OFFSET 0.0000 -40.0000 0.0000
      CHANNELS 3 Zrotation Xrotation Yrotation
      JOINT RightFoot
      {
        OFFSET 0.0000 -40.0000 0.0000
        CHANNELS 3 Zrotation Xrotation Yrotation
        JOINT RightToeBase
        {
          OFFSET 0.0000 -5.0000 10.0000
          CHANNELS 3 Zrotation Xrotation Yrotation
          End Site
          {
            OFFSET 0.0000 0.0000 5.0000
          }
        }
      }
    }
  }
}
MOTION
Frames: 24
Frame Time: 0.033333
0.0000 121.6949 0.0000 0.0000 0.0000 0.0000 0.0000 0.0000 0.0000 0.0000 0.0000 0.0000 0.0000 0.0000 0.0000 0.0000 0.0000 0.0000 0.0000 0.0000 0.0000 0.0000 0.0000 0.0000 0.0000 0.0000 -30.0000 0.0000 0.0000 0.0000 0.0000 0.0000 0.0000 0.0000 0.0000 0.0000 0.0000 0.0000 30.0000 0.0000 0.0000 0.0000 0.0000 0.0000 0.0000 0.0000 9.9661 0.0000 0.0000 14.9492 0.0000 0.0000 0.0000 0.0000 0.0000 0.0000 0.0000 0.0000 -9.9661 0.0000 0.0000 14.9492 0.0000 0.0000 0.0000 0.0000 0.0000 0.0000 0.0000
0.0000 125.0847 0.0000 0.0000 0.0000 0.0000 0.0000 0.0000 0.0000 0.0000 0.0000 0.0000 0.0000 0.0000 0.0000 0.0000 0.0000 0.0000 0.0000 0.0000 0.0000 0.0000 0.0000 0.0000 0.0000 0.0000 -30.0000 0.0000 0.0000 0.0000 0.0000 0.0000 0.0000 0.0000 0.0000 0.0000 0.0000 0.0000 30.0000 0.0000 0.0000 0.0000 0.0000 0.0000 0.0000 0.0000 5.8983 0.0000 0.0000 8.8475 0.0000 0.0000 0.0000 0.0000 0.0000 0.0000 0.0000 0.0000 -5.8983 0.0000 0.0000 8.8475 0.0000 0.0000 0.0000 0.0000 0.0000 0.0000 0.0000
0.0000 128.4746 0.0000 0.0000 0.0000 0.0000 0.0000 0.0000 0.0000 0.0000 0.0000 0.0000 0.0000 0.0000 0.0000 0.0000 0.0000 0.0000 0.0000 0.0000 0.0000 0.0000 0.0000 0.0000 0.0000 0.0000 -30.0000 0.0000 0.0000 0.0000 0.0000 0.0000 0.0000 0.0000 0.0000 0.0000 0.0000 0.0000 30.0000 0.0000 0.0000 0.0000 0.0000 0.0000 0.0000 0.0000 1.8305 0.0000 0.0000 2.7458 0.0000 0.0000 0.0000 0.0000 0.0000 0.0000 0.0000 0.0000 -1.8305 0.0000 0.0000 2.7458 0.0000 0.0000 0.0000 0.0000 0.0000 0.0000 0.0000
0.0000 130.0000 0.0000 0.0000 0.0000 0.0000 0.0000 0.0000 0.0000 0.0000 0.0000 0.0000 0.0000 0.0000 0.0000 0.0000 0.0000 0.0000 0.0000 0.0000 0.0000 0.0000 0.0000 0.0000 0.0000 0.0000 60.0000 0.0000 0.0000 0.0000 0.0000 0.0000 0.0000 0.0000 0.0000 0.0000 0.0000 0.0000 -60.0000 0.0000 0.0000 0.0000 0.0000 0.0000 0.0000 0.0000 28.6017 0.0000 0.0000 42.9025 0.0000 0.0000 0.0000 0.0000 0.0000 0.0000 0.0000 0.0000 -28.6017 0.0000 0.0000 42.9025 0.0000 0.0000 0.0000 0.0000 0.0000 0.0000 0.0000
0.0000 130.0000 0.0000 0.0000 0.0000 0.0000 0.0000 0.0000 0.0000 0.0000 0.0000 0.0000 0.0000 0.0000 0.0000 0.0000 0.0000 0.0000 0.0000 0.0000 0.0000 0.0000 0.0000 0.0000 0.0000 0.0000 60.0000 0.0000 0.0000 0.0000 0.0000 0.0000 0.0000 0.0000 0.0000 0.0000 0.0000 0.0000 -60.0000 0.0000 0.0000 0.0000 0.0000 0.0000 0.0000 0.0000 26.0593 0.0000 0.0000 39.0890 0.0000 0.0000 0.0000 0.0000 0.0000 0.0000 0.0000 0.0000 -26.0593 0.0000 0.0000 39.0890 0.0000 0.0000 0.0000 0.0000 0.0000 0.0000 0.0000
0.0000 130.0000 0.0000 0.0000 0.0000 0.0000 0.0000 0.0000 0.0000 0.0000 0.0000 0.0000 0.0000 0.0000 0.0000 0.0000 0.0000 0.0000 0.0000 0.0000 0.0000 0.0000 0.0000 0.0000 0.0000 0.0000 60.0000 0.0000 0.0000 0.0000 0.0000 0.0000 0.0000 0.0000 0.0000 0.0000 0.0000 0.0000 -60.0000 0.0000 0.0000 0.0000 0.0000 0.0000 0.0000 0.0000 23.5169 0.0000 0.0000 35.2754 0.0000 0.0000 0.0000 0.0000 0.0000 0.0000 0.0000 0.0000 -23.5169 0.0000 0.0000 35.2754 0.0000 0.0000 0.0000 0.0000 0.0000 0.0000 0.0000
0.0000 130.0000 0.0000 0.0000 0.0000 0.0000 0.0000 0.0000 0.0000 0.0000 0.0000 0.0000 0.0000 0.0000 0.0000 0.0000 0.0000 0.0000 0.0000 0.0000 0.0000 0.0000 0.0000 0.0000 0.0000 0.0000 60.0000 0.0000 0.0000 0.0000 0.0000 0.0000 0.0000 0.0000 0.0000 0.0000 0.0000 0.0000 -60.0000 0.0000 0.0000 0.0000 0.0000 0.0000 0.0000 0.0000 20.9746 0.0000 0.0000 31.4619 0.0000 0.0000 0.0000 0.0000 0.0000 0.0000 0.0000 0.0000 -20.9746 0.0000 0.0000 31.4619 0.0000 0.0000 0.0000 0.0000 0.0000 0.0000 0.0000
0.0000 130.0000 0.0000 0.0000 0.0000 0.0000 0.0000 0.0000 0.0000 0.0000 0.0000 0.0000 0.0000 0.0000 0.0000 0.0000 0.0000 0.0000 0.0000 0.0000 0.0000 0.0000 0.0000 0.0000 0.0000 0.0000 60.0000 0.0000 0.0000 0.0000 0.0000 0.0000 0.0000 0.0000 0.0000 0.0000 0.0000 0.0000 -60.0000 0.0000 0.0000 0.0000 0.0000 0.0000 0.0000 0.0000 18.4322 0.0000 0.0000 27.6483 0.0000 0.0000 0.0000 0.0000 0.0000 0.0000 0.0000 0.0000 -18.4322 0.0000 0.0000 27.6483 0.0000 0.0000 0.0000 0.0000 0.0000 0.0000 0.0000
0.0000 130.0000 0.0000 0.0000 0.0000 0.0000 0.0000 0.0000 0.0000 0.0000 0.0000 0.0000 0.0000 0.0000 0.0000 0.0000 0.0000 0.0000 0.0000 0.0000 0.0000 0.0000 0.0000 0.0000 0.0000 0.0000 60.0000 0.0000 0.0000 0.0000 0.0000 0.0000 0.0000 0.0000 0.0000 0.0000 0.0000 0.0000 -60.0000 0.0000 0.0000 0.0000 0.0000 0.0000 0.0000 0.0000 15.8898 0.0000 0.0000 23.8347 0.0000 0.0000 0.0000 0.0000 0.0000 0.0000 0.0000 0.0000 -15.8898 0.0000 0.0000 23.8347 0.0000 0.0000 0.0000 0.0000 0.0000 0.0000 0.0000
0.0000 130.0000 0.0000 0.0000 0.0000 0.0000 0.0000 0.0000 0.0000 0.0000 0.0000 0.0000 0.0000 0.0000 0.0000 0.0000 0.0000 0.0000 0.0000 0.0000 0.0000 0.0000 0.0000 0.0000 0.0000 0.0000 60.0000 0.0000 0.0000 0.0000 0.0000 0.0000 0.0000 0.0000 0.0000 0.0000 0.0000 0.0000 -60.0000 0.0000 0.0000 0.0000 0.0000 0.0000 0.0000 0.0000 13.3475 0.0000 0.0000 20.0212 0.0000 0.0000 0.0000 0.0000 0.0000 0.0000 0.0000 0.0000 -13.3475 0.0000 0.0000 20.0212 0.0000 0.0000 0.0000 0.0000 0.0000 0.0000 0.0000
0.0000 130.0000 0.0000 0.0000 0.0000 0.0000 0.0000 0.0000 0.0000 0.0000 0.0000 0.0000 0.0000 0.0000 0.0000 0.0000 0.0000 0.0000 0.0000 0.0000 0.0000 0.0000 0.0000 0.0000 0.0000 0.0000 60.0000 0.0000 0.0000 0.0000 0.0000 0.0000 0.0000 0.0000 0.0000 0.0000 0.0000 0.0000 -60.0000 0.0000 0.0000 0.0000 0.0000 0.0000 0.0000 0.0000 10.8051 0.0000 0.0000 16.2076 0.0000 0.0000 0.0000 0.0000 0.0000 0.0000 0.0000 0.0000 -10.8051 0.0000 0.0000 16.2076 0.0000 0.0000 0.0000 0.0000 0.0000 0.0000 0.0000
0.0000 130.0000 0.0000 0.0000 0.0000 0.0000 0.0000 0.0000 0.0000 0.0000 0.0000 0.0000 0.0000 0.0000 0.0000 0.0000 0.0000 0.0000 0.0000 0.0000 0.0000 0.0000 0.0000 0.0000 0.0000 0.0000 60.0000 0.0000 0.0000 0.0000 0.0000 0.0000 0.0000 0.0000 0.0000 0.0000 0.0000 0.0000 -60.0000 0.0000 0.0000 0.0000 0.0000 0.0000 0.0000 0.0000 8.2627 0.0000 0.0000 12.3941 0.0000 0.0000 0.0000 0.0000 0.0000 0.0000 0.0000 0.0000 -8.2627 0.0000 0.0000 12.3941 0.0000 0.0000 0.0000 0.0000 0.0000 0.0000 0.0000
0.0000 130.0000 0.0000 0.0000 0.0000 0.0000 0.0000 0.0000 0.0000 0.0000 0.0000 0.0000 0.0000 0.0000 0.0000 0.0000 0.0000 0.0000 0.0000 0.0000 0.0000 0.0000 0.0000 0.0000 0.0000 0.0000 60.0000 0.0000 0.0000 0.0000 0.0000 0.0000 0.0000 0.0000 0.0000 0.0000 0.0000 0.0000 -60.0000 0.0000 0.0000 0.0000 0.0000 0.0000 0.0000 0.0000 5.7203 0.0000 0.0000 8.5805 0.0000 0.0000 0.0000 0.0000 0.0000 0.0000 0.0000 0.0000 -5.7203 0.0000 0.0000 8.5805 0.0000 0.0000 0.0000 0.0000 0.0000 0.0000 0.0000
0.0000 130.0000 0.0000 0.0000 0.0000 0.0000 0.0000 0.0000 0.0000 0.0000 0.0000 0.0000 0.0000 0.0000 0.0000 0.0000 0.0000 0.0000 0.0000 0.0000 0.0000 0.0000 0.0000 0.0000 0.0000 0.0000 60.0000 0.0000 0.0000 0.0000 0.0000 0.0000 0.0000 0.0000 0.0000 0.0000 0.0000 0.0000 -60.0000 0.0000 0.0000 0.0000 0.0000 0.0000 0.0000 0.0000 3.1780 0.0000 0.0000 4.7669 0.0000 0.0000 0.0000 0.0000 0.0000 0.0000 0.0000 0.0000 -3.1780 0.0000 0.0000 4.7669 0.0000 0.0000 0.0000 0.0000 0.0000 0.0000 0.0000
0.0000 130.0000 0.0000 0.0000 0.0000 0.0000 0.0000 0.0000 0.0000 0.0000 0.0000 0.0000 0.0000 0.0000 0.0000 0.0000 0.0000 0.0000 0.0000 0.0000 0.0000 0.0000 0.0000 0.0000 0.0000 0.0000 60.0000 0.0000 0.0000 0.0000 0.0000 0.0000 0.0000 0.0000 0.0000 0.0000 0.0000 0.0000 -60.0000 0.0000 0.0000 0.0000 0.0000 0.0000 0.0000 0.0000 0.6356 0.0000 0.0000 0.9534 0.0000 0.0000 0.0000 0.0000 0.0000 0.0000 0.0000 0.0000 -0.6356 0.0000 0.0000 0.9534 0.0000 0.0000 0.0000 0.0000 0.0000 0.0000 0.0000
0.0000 127.9661 0.0000 0.0000 0.0000 0.0000 0.0000 0.0000 0.0000 0.0000 0.0000 0.0000 0.0000 0.0000 0.0000 0.0000 0.0000 0.0000 0.0000 0.0000 0.0000 0.0000 0.0000 0.0000 0.0000 0.0000 60.0000 0.0000 0.0000 0.0000 0.0000 0.0000 0.0000 0.0000 0.0000 0.0000 0.0000 0.0000 -60.0000 0.0000 0.0000 0.0000 0.0000 0.0000 0.0000 0.0000 2.0339 0.0000 0.0000 3.0508 0.0000 0.0000 0.0000 0.0000 0.0000 0.0000 0.0000 0.0000 -2.0339 0.0000 0.0000 3.0508 0.0000 0.0000 0.0000 0.0000 0.0000 0.0000 0.0000
0.0000 125.2542 0.0000 0.0000 0.0000 0.0000 0.0000 0.0000 0.0000 0.0000 0.0000 0.0000 0.0000 0.0000 0.0000 0.0000 0.0000 0.0000 0.0000 0.0000 0.0000 0.0000 0.0000 0.0000 0.0000 0.0000 60.0000 0.0000 0.0000 0.0000 0.0000 0.0000 0.0000 0.0000 0.0000 0.0000 0.0000 0.0000 -60.0000 0.0000 0.0000 0.0000 0.0000 0.0000 0.0000 0.0000 4.7458 0.0000 0.0000 7.1186 0.0000 0.0000 0.0000 0.0000 0.0000 0.0000 0.0000 0.0000 -4.7458 0.0000 0.0000 7.1186 0.0000 0.0000 0.0000 0.0000 0.0000 0.0000 0.0000
0.0000 122.5424 0.0000 0.0000 0.0000 0.0000 0.0000 0.0000 0.0000 0.0000 0.0000 0.0000 0.0000 0.0000 0.0000 0.0000 0.0000 0.0000 0.0000 0.0000 0.0000 0.0000 0.0000 0.0000 0.0000 0.0000 60.0000 0.0000 0.0000 0.0000 0.0000 0.0000 0.0000 0.0000 0.0000 0.0000 0.0000 0.0000 -60.0000 0.0000 0.0000 0.0000 0.0000 0.0000 0.0000 0.0000 7.4576 0.0000 0.0000 11.1864 0.0000 0.0000 0.0000 0.0000 0.0000 0.0000 0.0000 0.0000 -7.4576 0.0000 0.0000 11.1864 0.0000 0.0000 0.0000 0.0000 0.0000 0.0000 0.0000
0.0000 119.8305 0.0000 0.0000 0.0000 0.0000 0.0000 0.0000 0.0000 0.0000 0.0000 0.0000 0.0000 0.0000 0.0000 0.0000 0.0000 0.0000 0.0000 0.0000 0.0000 0.0000 0.0000 0.0000 0.0000 0.0000 60.0000 0.0000 0.0000 0.0000 0.0000 0.0000 0.0000 0.0000 0.0000 0.0000 0.0000 0.0000 -60.0000 0.0000 0.0000 0.0000 0.0000 0.0000 0.0000 0.0000 10.1695 0.0000 0.0000 15.2542 0.0000 0.0000 0.0000 0.0000 0.0000 0.0000 0.0000 0.0000 -10.1695 0.0000 0.0000 15.2542 0.0000 0.0000 0.0000 0.0000 0.0000 0.0000 0.0000
0.0000 117.1186 0.0000 0.0000 0.0000 0.0000 0.0000 0.0000 0.0000 0.0000 0.0000 0.0000 0.0000 0.0000 0.0000 0.0000 0.0000 0.0000 0.0000 0.0000 0.0000 0.0000 0.0000 0.0000 0.0000 0.0000 60.0000 0.0000 0.0000 0.0000 0.0000 0.0000 0.0000 0.0000 0.0000 0.0000 0.0000 0.0000 -60.0000 0.0000 0.0000 0.0000 0.0000 0.0000 0.0000 0.0000 12.8814 0.0000 0.0000 19.3220 0.0000 0.0000 0.0000 0.0000 0.0000 0.0000 0.0000 0.0000 -12.8814 0.0000 0.0000 19.3220 0.0000 0.0000 0.0000 0.0000 0.0000 0.0000 0.0000
0.0000 114.4068 0.0000 0.0000 0.0000 0.0000 0.0000 0.0000 0.0000 0.0000 0.0000 0.0000 0.0000 0.0000 0.0000 0.0000 0.0000 0.0000 0.0000 0.0000 0.0000 0.0000 0.0000 0.0000 0.0000 0.0000 60.0000 0.0000 0.0000 0.0000 0.0000 0.0000 0.0000 0.0000 0.0000 0.0000 0.0000 0.0000 -60.0000 0.0000 0.0000 0.0000 0.0000 0.0000 0.0000 0.0000 15.5932 0.0000 0.0000 23.3898 0.0000 0.0000 0.0000 0.0000 0.0000 0.0000 0.0000 0.0000 -15.5932 0.0000 0.0000 23.3898 0.0000 0.0000 0.0000 0.0000 0.0000 0.0000 0.0000
0.0000 111.6949 0.0000 0.0000 0.0000 0.0000 0.0000 0.0000 0.0000 0.0000 0.0000 0.0000 0.0000 0.0000 0.0000 0.0000 0.0000 0.0000 0.0000 0.0000 0.0000 0.0000 0.0000 0.0000 0.0000 0.0000 60.0000 0.0000 0.0000 0.0000 0.0000 0.0000 0.0000 0.0000 0.0000 0.0000 0.0000 0.0000 -60.0000 0.0000 0.0000 0.0000 0.0000 0.0000 0.0000 0.0000 18.3051 0.0000 0.0000 27.4576 0.0000 0.0000 0.0000 0.0000 0.0000 0.0000 0.0000 0.0000 -18.3051 0.0000 0.0000 27.4576 0.0000 0.0000 0.0000 0.0000 0.0000 0.0000 0.0000
0.0000 108.9831 0.0000 0.0000 0.0000 0.0000 0.0000 0.0000 0.0000 0.0000 0.0000 0.0000 0.0000 0.0000 0.0000 0.0000 0.0000 0.0000 0.0000 0.0000 0.0000 0.0000 0.0000 0.0000 0.0000 0.0000 60.0000 0.0000 0.0000 0.0000 0.0000 0.0000 0.0000 0.0000 0.0000 0.0000 0.0000 0.0000 -60.0000 0.0000 0.0000 0.0000 0.0000 0.0000 0.0000 0.0000 21.0169 0.0000 0.0000 31.5254 0.0000 0.0000 0.0000 0.0000 0.0000 0.0000 0.0000 0.0000 -21.0169 0.0000 0.0000 31.5254 0.0000 0.0000 0.0000 0.0000 0.0000 0.0000 0.0000
0.0000 106.2712 0.0000 0.0000 0.0000 0.0000 0.0000 0.0000 0.0000 0.0000 0.0000 0.0000 0.0000 0.0000 0.0000 0.0000 0.0000 0.0000 0.0000 0.0000 0.0000 0.0000 0.0000 0.0000 0.0000 0.0000 60.0000 0.0000 0.0000 0.0000 0.0000 0.0000 0.0000 0.0000 0.0000 0.0000 0.0000 0.0000 -60.0000 0.0000 0.0000 0.0000 0.0000 0.0000 0.0000 0.0000 23.7288 0.0000 0.0000 35.5932 0.0000 0.0000 0.0000 0.0000 0.0000 0.0000 0.0000 0.0000 -23.7288 0.0000 0.0000 35.5932 0.0000 0.0000 0.0000 0.0000 0.0000 0.0000 0.0000
